<svg viewBox="0 0 105 36" fill="none" xmlns="http://www.w3.org/2000/svg">
<path fill-rule="evenodd" clip-rule="evenodd" d="M20.9786 1.31024e-06H25.1204C26.539 -3.13147e-05 27.7326 -5.92776e-05 28.7097 0.0808323C29.7317 0.165446 30.7053 0.349349 31.63 0.826795C33.0386 1.55406 34.1838 2.71453 34.9015 4.14187C35.3727 5.07891 35.5542 6.06538 35.6377 7.10101C35.7175 8.09109 35.7175 9.30059 35.7175 10.7382V14.7189C35.7175 16.1565 35.7175 17.366 35.6377 18.3561C35.5542 19.3917 35.3727 20.3782 34.9015 21.3152C34.1838 22.7426 33.0386 23.903 31.63 24.6303C30.7053 25.1078 29.7317 25.2917 28.7097 25.3763C27.7326 25.4572 26.539 25.4571 25.1203 25.4571H12.7517C11.8829 25.4571 11.0989 24.9289 10.7627 24.1171C10.4265 23.3053 10.6038 22.3684 11.2124 21.7402L21.4265 11.1974L24.505 14.2598L17.8919 21.0857H25.0339C26.5618 21.0857 27.578 21.084 28.3584 21.0194C29.1137 20.9568 29.4562 20.8465 29.6715 20.7353C30.2683 20.4272 30.7536 19.9355 31.0577 19.3307C31.1674 19.1126 31.2763 18.7654 31.338 18.0001C31.4018 17.2093 31.4034 16.1796 31.4034 14.6314V10.8257C31.4034 9.27749 31.4018 8.24779 31.338 7.45698C31.2763 6.69169 31.1674 6.34453 31.0577 6.12645C30.7536 5.52165 30.2683 5.02992 29.6715 4.72176C29.4562 4.61064 29.1137 4.50026 28.3584 4.43774C27.578 4.37312 26.5618 4.37142 25.0339 4.37142H21.0656C19.521 4.37142 18.493 4.37314 17.704 4.43879C16.9399 4.50236 16.5945 4.61461 16.3785 4.72712C15.7781 5.03994 15.2918 5.53874 14.9904 6.15095C14.882 6.37113 14.7755 6.72248 14.7221 7.49745C14.6669 8.29771 14.6777 9.33936 14.6966 10.9044L14.7182 12.7019L10.4045 12.7552L10.3818 10.8695C10.3643 9.41585 10.3496 8.19356 10.4185 7.19288C10.4906 6.14673 10.6627 5.14896 11.13 4.19969C11.8413 2.75487 12.9889 1.5777 14.4059 0.839439C15.337 0.354382 16.3195 0.167848 17.3509 0.0820292C18.3376 -5.95314e-05 19.5439 -3.15736e-05 20.9786 1.31024e-06Z" fill="url(#paint0_linear_7_163)"/>
<path fill-rule="evenodd" clip-rule="evenodd" d="M20.9786 1.31024e-06H25.1204C26.539 -3.13147e-05 27.7326 -5.92776e-05 28.7097 0.0808323C29.7317 0.165446 30.7053 0.349349 31.63 0.826795C33.0386 1.55406 34.1838 2.71453 34.9015 4.14187C35.3727 5.07891 35.5542 6.06538 35.6377 7.10101C35.7175 8.09109 35.7175 9.30059 35.7175 10.7382V14.7189C35.7175 16.1565 35.7175 17.366 35.6377 18.3561C35.5542 19.3917 35.3727 20.3782 34.9015 21.3152C34.1838 22.7426 33.0386 23.903 31.63 24.6303C30.7053 25.1078 29.7317 25.2917 28.7097 25.3763C27.7326 25.4572 26.539 25.4571 25.1203 25.4571H12.7517C11.8829 25.4571 11.0989 24.9289 10.7627 24.1171C10.4265 23.3053 10.6038 22.3684 11.2124 21.7402L21.4265 11.1974L24.505 14.2598L17.8919 21.0857H25.0339C26.5618 21.0857 27.578 21.084 28.3584 21.0194C29.1137 20.9568 29.4562 20.8465 29.6715 20.7353C30.2683 20.4272 30.7536 19.9355 31.0577 19.3307C31.1674 19.1126 31.2763 18.7654 31.338 18.0001C31.4018 17.2093 31.4034 16.1796 31.4034 14.6314V10.8257C31.4034 9.27749 31.4018 8.24779 31.338 7.45698C31.2763 6.69169 31.1674 6.34453 31.0577 6.12645C30.7536 5.52165 30.2683 5.02992 29.6715 4.72176C29.4562 4.61064 29.1137 4.50026 28.3584 4.43774C27.578 4.37312 26.5618 4.37142 25.0339 4.37142H21.0656C19.521 4.37142 18.493 4.37314 17.704 4.43879C16.9399 4.50236 16.5945 4.61461 16.3785 4.72712C15.7781 5.03994 15.2918 5.53874 14.9904 6.15095C14.882 6.37113 14.7755 6.72248 14.7221 7.49745C14.6669 8.29771 14.6777 9.33936 14.6966 10.9044L14.7182 12.7019L10.4045 12.7552L10.3818 10.8695C10.3643 9.41585 10.3496 8.19356 10.4185 7.19288C10.4906 6.14673 10.6627 5.14896 11.13 4.19969C11.8413 2.75487 12.9889 1.5777 14.4059 0.839439C15.337 0.354382 16.3195 0.167848 17.3509 0.0820292C18.3376 -5.95314e-05 19.5439 -3.15736e-05 20.9786 1.31024e-06Z" fill="url(#paint1_radial_7_163)"/>
<path fill-rule="evenodd" clip-rule="evenodd" d="M20.9786 1.31024e-06H25.1204C26.539 -3.13147e-05 27.7326 -5.92776e-05 28.7097 0.0808323C29.7317 0.165446 30.7053 0.349349 31.63 0.826795C33.0386 1.55406 34.1838 2.71453 34.9015 4.14187C35.3727 5.07891 35.5542 6.06538 35.6377 7.10101C35.7175 8.09109 35.7175 9.30059 35.7175 10.7382V14.7189C35.7175 16.1565 35.7175 17.366 35.6377 18.3561C35.5542 19.3917 35.3727 20.3782 34.9015 21.3152C34.1838 22.7426 33.0386 23.903 31.63 24.6303C30.7053 25.1078 29.7317 25.2917 28.7097 25.3763C27.7326 25.4572 26.539 25.4571 25.1203 25.4571H12.7517C11.8829 25.4571 11.0989 24.9289 10.7627 24.1171C10.4265 23.3053 10.6038 22.3684 11.2124 21.7402L21.4265 11.1974L24.505 14.2598L17.8919 21.0857H25.0339C26.5618 21.0857 27.578 21.084 28.3584 21.0194C29.1137 20.9568 29.4562 20.8465 29.6715 20.7353C30.2683 20.4272 30.7536 19.9355 31.0577 19.3307C31.1674 19.1126 31.2763 18.7654 31.338 18.0001C31.4018 17.2093 31.4034 16.1796 31.4034 14.6314V10.8257C31.4034 9.27749 31.4018 8.24779 31.338 7.45698C31.2763 6.69169 31.1674 6.34453 31.0577 6.12645C30.7536 5.52165 30.2683 5.02992 29.6715 4.72176C29.4562 4.61064 29.1137 4.50026 28.3584 4.43774C27.578 4.37312 26.5618 4.37142 25.0339 4.37142H21.0656C19.521 4.37142 18.493 4.37314 17.704 4.43879C16.9399 4.50236 16.5945 4.61461 16.3785 4.72712C15.7781 5.03994 15.2918 5.53874 14.9904 6.15095C14.882 6.37113 14.7755 6.72248 14.7221 7.49745C14.6669 8.29771 14.6777 9.33936 14.6966 10.9044L14.7182 12.7019L10.4045 12.7552L10.3818 10.8695C10.3643 9.41585 10.3496 8.19356 10.4185 7.19288C10.4906 6.14673 10.6627 5.14896 11.13 4.19969C11.8413 2.75487 12.9889 1.5777 14.4059 0.839439C15.337 0.354382 16.3195 0.167848 17.3509 0.0820292C18.3376 -5.95314e-05 19.5439 -3.15736e-05 20.9786 1.31024e-06Z" fill="url(#paint2_radial_7_163)"/>
<path fill-rule="evenodd" clip-rule="evenodd" d="M20.9786 1.31024e-06H25.1204C26.539 -3.13147e-05 27.7326 -5.92776e-05 28.7097 0.0808323C29.7317 0.165446 30.7053 0.349349 31.63 0.826795C33.0386 1.55406 34.1838 2.71453 34.9015 4.14187C35.3727 5.07891 35.5542 6.06538 35.6377 7.10101C35.7175 8.09109 35.7175 9.30059 35.7175 10.7382V14.7189C35.7175 16.1565 35.7175 17.366 35.6377 18.3561C35.5542 19.3917 35.3727 20.3782 34.9015 21.3152C34.1838 22.7426 33.0386 23.903 31.63 24.6303C30.7053 25.1078 29.7317 25.2917 28.7097 25.3763C27.7326 25.4572 26.539 25.4571 25.1203 25.4571H12.7517C11.8829 25.4571 11.0989 24.9289 10.7627 24.1171C10.4265 23.3053 10.6038 22.3684 11.2124 21.7402L21.4265 11.1974L24.505 14.2598L17.8919 21.0857H25.0339C26.5618 21.0857 27.578 21.084 28.3584 21.0194C29.1137 20.9568 29.4562 20.8465 29.6715 20.7353C30.2683 20.4272 30.7536 19.9355 31.0577 19.3307C31.1674 19.1126 31.2763 18.7654 31.338 18.0001C31.4018 17.2093 31.4034 16.1796 31.4034 14.6314V10.8257C31.4034 9.27749 31.4018 8.24779 31.338 7.45698C31.2763 6.69169 31.1674 6.34453 31.0577 6.12645C30.7536 5.52165 30.2683 5.02992 29.6715 4.72176C29.4562 4.61064 29.1137 4.50026 28.3584 4.43774C27.578 4.37312 26.5618 4.37142 25.0339 4.37142H21.0656C19.521 4.37142 18.493 4.37314 17.704 4.43879C16.9399 4.50236 16.5945 4.61461 16.3785 4.72712C15.7781 5.03994 15.2918 5.53874 14.9904 6.15095C14.882 6.37113 14.7755 6.72248 14.7221 7.49745C14.6669 8.29771 14.6777 9.33936 14.6966 10.9044L14.7182 12.7019L10.4045 12.7552L10.3818 10.8695C10.3643 9.41585 10.3496 8.19356 10.4185 7.19288C10.4906 6.14673 10.6627 5.14896 11.13 4.19969C11.8413 2.75487 12.9889 1.5777 14.4059 0.839439C15.337 0.354382 16.3195 0.167848 17.3509 0.0820292C18.3376 -5.95314e-05 19.5439 -3.15736e-05 20.9786 1.31024e-06Z" fill="url(#paint3_radial_7_163)"/>
<path fill-rule="evenodd" clip-rule="evenodd" d="M7.35907 31.5622C8.13949 31.6268 9.15567 31.6285 10.6835 31.6285H14.7184C16.1116 31.6285 17.0381 31.6271 17.7518 31.5731C18.4435 31.5208 18.7607 31.4281 18.9593 31.3358C19.6495 31.015 20.2033 30.4539 20.5199 29.7545C20.611 29.5532 20.7025 29.2318 20.7541 28.5309C20.8074 27.8077 20.8088 26.8688 20.8088 25.4571H25.1228L25.1228 25.5369C25.1228 26.8479 25.1229 27.951 25.0561 28.8563C24.9864 29.8023 24.8352 30.7064 24.441 31.5772C23.6938 33.2278 22.387 34.5519 20.7581 35.3091C19.8988 35.7086 19.0066 35.8618 18.073 35.9324C17.1795 36 16.0909 36 14.7971 36L10.5971 36C9.17843 36 7.98483 36 7.00777 35.9191C5.98575 35.8345 5.01223 35.6506 4.08749 35.1732C2.6789 34.4459 1.53367 33.2854 0.815956 31.8581C0.344778 30.9211 0.163294 29.9346 0.0797882 28.899C-4.00543e-05 27.9089 -1.14441e-05 26.6994 2.09808e-05 25.2618V21.281C-1.14441e-05 19.8435 -4.00543e-05 18.6339 0.0797882 17.6439C0.163294 16.6082 0.344782 15.6218 0.815956 14.6847C1.53367 13.2574 2.6789 12.0969 4.08749 11.3697C5.01223 10.8922 5.98575 10.7083 7.00777 10.6237C7.98485 10.5428 9.17847 10.5428 10.5972 10.5429H22.9658C24.1571 10.5429 25.1228 11.5214 25.1228 12.7286C25.1228 13.9357 24.1571 14.9143 22.9658 14.9143H10.6835C9.15567 14.9143 8.13949 14.916 7.35907 14.9806C6.60383 15.0431 6.26123 15.1535 6.04601 15.2646C5.44915 15.5728 4.96388 16.0645 4.65977 16.6693C4.55011 16.8874 4.44118 17.2346 4.37947 17.9998C4.31571 18.7907 4.31403 19.8204 4.31403 21.3686V25.1743C4.31403 26.7225 4.31571 27.7522 4.37947 28.543C4.44118 29.3083 4.55011 29.6554 4.65977 29.8735C4.96388 30.4783 5.44915 30.97 6.04601 31.2782C6.26123 31.3893 6.60383 31.4997 7.35907 31.5622Z" fill="url(#paint4_linear_7_163)"/>
<path fill-rule="evenodd" clip-rule="evenodd" d="M7.35907 31.5622C8.13949 31.6268 9.15567 31.6285 10.6835 31.6285H14.7184C16.1116 31.6285 17.0381 31.6271 17.7518 31.5731C18.4435 31.5208 18.7607 31.4281 18.9593 31.3358C19.6495 31.015 20.2033 30.4539 20.5199 29.7545C20.611 29.5532 20.7025 29.2318 20.7541 28.5309C20.8074 27.8077 20.8088 26.8688 20.8088 25.4571H25.1228L25.1228 25.5369C25.1228 26.8479 25.1229 27.951 25.0561 28.8563C24.9864 29.8023 24.8352 30.7064 24.441 31.5772C23.6938 33.2278 22.387 34.5519 20.7581 35.3091C19.8988 35.7086 19.0066 35.8618 18.073 35.9324C17.1795 36 16.0909 36 14.7971 36L10.5971 36C9.17843 36 7.98483 36 7.00777 35.9191C5.98575 35.8345 5.01223 35.6506 4.08749 35.1732C2.6789 34.4459 1.53367 33.2854 0.815956 31.8581C0.344778 30.9211 0.163294 29.9346 0.0797882 28.899C-4.00543e-05 27.9089 -1.14441e-05 26.6994 2.09808e-05 25.2618V21.281C-1.14441e-05 19.8435 -4.00543e-05 18.6339 0.0797882 17.6439C0.163294 16.6082 0.344782 15.6218 0.815956 14.6847C1.53367 13.2574 2.6789 12.0969 4.08749 11.3697C5.01223 10.8922 5.98575 10.7083 7.00777 10.6237C7.98485 10.5428 9.17847 10.5428 10.5972 10.5429H22.9658C24.1571 10.5429 25.1228 11.5214 25.1228 12.7286C25.1228 13.9357 24.1571 14.9143 22.9658 14.9143H10.6835C9.15567 14.9143 8.13949 14.916 7.35907 14.9806C6.60383 15.0431 6.26123 15.1535 6.04601 15.2646C5.44915 15.5728 4.96388 16.0645 4.65977 16.6693C4.55011 16.8874 4.44118 17.2346 4.37947 17.9998C4.31571 18.7907 4.31403 19.8204 4.31403 21.3686V25.1743C4.31403 26.7225 4.31571 27.7522 4.37947 28.543C4.44118 29.3083 4.55011 29.6554 4.65977 29.8735C4.96388 30.4783 5.44915 30.97 6.04601 31.2782C6.26123 31.3893 6.60383 31.4997 7.35907 31.5622Z" fill="url(#paint5_radial_7_163)"/>
<path d="M57.9697 24.9344V27.1632C57.9697 27.4813 57.7135 27.7411 57.3977 27.7411H45.1851C45.1683 27.7411 45.1496 27.7411 45.1328 27.7392C44.5199 27.7222 43.9812 27.4041 43.656 26.9261C43.6541 26.9223 43.6524 26.9184 43.6486 26.9149C43.5001 26.6624 43.4147 26.3671 43.4147 26.0488C43.4147 25.6969 43.5204 25.3731 43.7007 25.1019C43.7156 25.0794 43.7305 25.0569 43.747 25.036L53.0209 12.0266H44.715C44.4011 12.0266 44.1447 11.7667 44.1447 11.4467V9.21985C44.1447 8.89984 44.4011 8.64 44.715 8.64H56.3554C56.3684 8.64 56.3815 8.64 56.3945 8.64191C56.398 8.64191 56.4037 8.64 56.4094 8.64191C57.0429 8.65893 57.5983 9.00148 57.9177 9.51158C57.9215 9.51733 57.9234 9.52092 57.9253 9.52476C58.0551 9.76567 58.1275 10.0406 58.1275 10.3323C58.1275 10.6823 58.0218 11.0081 57.8415 11.2792C57.8268 11.3017 57.8119 11.3226 57.7951 11.3451L48.5196 24.3565H57.3977C57.7135 24.3565 57.9697 24.6163 57.9697 24.9344Z" fill="white"/>
<path d="M65.7815 24.878C63.6896 24.878 62.1683 23.2271 62.1683 20.9437C62.1683 18.6319 63.6896 16.9811 65.7815 16.9811C67.8713 16.9811 69.3649 18.6319 69.3649 20.9437C69.3649 23.2271 67.8713 24.878 65.7815 24.878ZM72.3262 14.1461H69.9371C69.6213 14.1461 69.3649 14.4059 69.3649 14.7242V16.3185C68.28 14.7786 66.5969 13.8694 64.6408 13.8694C61.1094 13.8694 58.5291 16.8437 58.5291 20.9437C58.5291 25.0436 61.1094 27.9897 64.6408 27.9897C66.5969 27.9897 68.28 27.0824 69.3649 25.5669V27.1351C69.3649 27.47 69.6343 27.7411 69.9632 27.7411H72.3262C72.6569 27.7411 72.9244 27.47 72.9244 27.1351V14.7504C72.9244 14.4172 72.6569 14.1461 72.3262 14.1461Z" fill="white"/>
<path d="M83.5794 13.8699C81.7321 13.8699 80.2106 14.7506 79.3415 16.2101V14.7237C79.3415 14.3385 79.1248 14.1458 78.7714 14.1458H76.3805C76.0282 14.1458 75.8115 14.3385 75.8115 14.7237V27.1358C75.8115 27.521 76.0282 27.7418 76.3805 27.7418H78.7714C79.1248 27.7418 79.3415 27.521 79.3415 27.1358V19.76C79.3415 17.9435 80.4829 16.7327 82.1934 16.7327C83.8505 16.7327 84.9643 17.9435 84.9643 19.76V27.1358C84.9643 27.4704 85.2318 27.7418 85.5611 27.7418H87.9253C88.2543 27.7418 88.5221 27.4704 88.5221 27.1358V19.2377C88.5221 16.0716 86.4846 13.8699 83.5794 13.8699Z" fill="white"/>
<path d="M97.7474 24.878C95.6557 24.878 94.1639 23.2271 94.1639 20.9437C94.1639 18.6319 95.6557 16.9811 97.7474 16.9811C99.8669 16.9811 101.361 18.6319 101.361 20.9437C101.361 23.2271 99.8669 24.878 97.7474 24.878ZM97.7753 13.8694C93.5657 13.8694 90.5226 16.8437 90.5226 20.9437C90.5226 25.0436 93.5657 27.9897 97.7753 27.9897C101.959 27.9897 105 25.0436 105 20.9437C105 16.8437 101.959 13.8694 97.7753 13.8694Z" fill="white"/>
<defs>
<linearGradient id="paint0_linear_7_163" x1="17.0186" y1="25.2594" x2="17.3088" y2="-0.0324009" gradientUnits="userSpaceOnUse">
<stop offset="0.43118" stop-color="#498FFD"/>
<stop offset="1" stop-color="#16D1D6"/>
</linearGradient>
<radialGradient id="paint1_radial_7_163" cx="0" cy="0" r="1" gradientTransform="matrix(15.7034 -4.38794 4.36952 15.7204 10.0679 7.70769)" gradientUnits="userSpaceOnUse">
<stop stop-color="#18CFD7"/>
<stop offset="1" stop-color="#18CFD7" stop-opacity="0"/>
</radialGradient>
<radialGradient id="paint2_radial_7_163" cx="0" cy="0" r="1" gradientTransform="matrix(-5.40609 2.83925 -2.82734 -5.41193 19.5929 14.9349)" gradientUnits="userSpaceOnUse">
<stop stop-color="#4990FE"/>
<stop offset="0.353962" stop-color="#4990FE"/>
<stop offset="1" stop-color="#4990FE" stop-opacity="0"/>
</radialGradient>
<radialGradient id="paint3_radial_7_163" cx="0" cy="0" r="1" gradientTransform="matrix(7.72298 -8.00153 7.96795 7.73133 12.1274 23.1945)" gradientUnits="userSpaceOnUse">
<stop stop-color="#4990FE"/>
<stop offset="0.405688" stop-color="#4990FE"/>
<stop offset="1" stop-color="#4990FE" stop-opacity="0"/>
</radialGradient>
<linearGradient id="paint4_linear_7_163" x1="25.2565" y1="36.1002" x2="25.3498" y2="10.2892" gradientUnits="userSpaceOnUse">
<stop stop-color="#2950FF"/>
<stop offset="0.821717" stop-color="#498FFD"/>
</linearGradient>
<radialGradient id="paint5_radial_7_163" cx="0" cy="0" r="1" gradientTransform="matrix(-6.95068 8.51776 -8.4059 -6.89575 25.2565 25.2594)" gradientUnits="userSpaceOnUse">
<stop offset="0.337169" stop-color="#2950FF"/>
<stop offset="0.792226" stop-color="#2950FF" stop-opacity="0"/>
</radialGradient>
</defs>
</svg>
